<?xml version="1.0" standalone="no"?><!DOCTYPE svg PUBLIC "-//W3C//DTD SVG 1.1//EN" "http://www.w3.org/Graphics/SVG/1.1/DTD/svg11.dtd"><svg t="1574682585862" class="icon" viewBox="0 0 1024 1024" version="1.1" xmlns="http://www.w3.org/2000/svg" p-id="1180" xmlns:xlink="http://www.w3.org/1999/xlink" width="200" height="200"><defs><style type="text/css"></style></defs><path d="M930.909091 944.872727H93.090909c-51.2 0-93.090909-44.218182-93.090909-97.745454V332.8c0-53.527273 41.890909-97.745455 93.090909-97.745455h160.581818c23.272727-58.181818 60.509091-121.018182 114.036364-121.018181h288.581818c55.854545 0 90.763636 60.509091 114.036364 121.018181H930.909091c51.2 0 93.090909 44.218182 93.090909 97.745455v514.327273c0 53.527273-41.890909 97.745455-93.090909 97.745454zM93.090909 297.890909c-16.290909 0-30.254545 16.290909-30.254545 34.909091v514.327273c0 18.618182 13.963636 34.909091 30.254545 34.909091h837.818182c16.290909 0 30.254545-16.290909 30.254545-34.909091V332.8c0-18.618182-13.963636-34.909091-30.254545-34.909091h-181.527273c-13.963636 0-25.6-9.309091-30.254545-23.272727-20.945455-67.490909-48.872727-97.745455-60.509091-97.745455H367.709091c-9.309091 0-37.236364 30.254545-62.836364 100.072728-4.654545 11.636364-16.290909 20.945455-30.254545 20.945454H93.090909z m707.490909 104.727273c-18.618182 0-32.581818-13.963636-32.581818-32.581818s13.963636-32.581818 32.581818-32.581819 32.581818 13.963636 32.581818 32.581819-16.290909 32.581818-32.581818 32.581818M512 754.036364c-104.727273 0-190.836364-86.109091-190.836364-190.836364S407.272727 372.363636 512 372.363636s190.836364 86.109091 190.836364 190.836364-86.109091 190.836364-190.836364 190.836364z m0-321.163637c-69.818182 0-128 58.181818-128 128s58.181818 128 128 128 128-58.181818 128-128-58.181818-128-128-128z" p-id="1181" fill="#bfbfbf"></path></svg>