<?xml version="1.0" standalone="no"?><!DOCTYPE svg PUBLIC "-//W3C//DTD SVG 1.1//EN" "http://www.w3.org/Graphics/SVG/1.1/DTD/svg11.dtd"><svg t="1565414769960" class="icon" viewBox="0 0 1024 1024" version="1.1" xmlns="http://www.w3.org/2000/svg" p-id="1255" xmlns:xlink="http://www.w3.org/1999/xlink" width="200" height="200"><defs><style type="text/css"></style></defs><path d="M510.491011 0c-215.785441 0-392.337165 172.628352-392.337165 388.413793 0 74.544061 23.54023 145.164751 58.850575 204.015326 0 3.923372 3.923372 3.923372 3.923372 7.846743 43.157088 70.62069 137.318008 153.011494 200.091954 231.478927 78.467433 102.007663 121.624521 188.321839 121.624521 188.321839s3.923372 3.923372 7.846743 3.923372 7.846743 0 7.846743-3.923372c0 0 35.310345-82.390805 109.854406-172.628352 66.697318-82.390805 172.628352-172.628352 211.862069-243.249042 0-3.923372 3.923372-3.923372 3.923372-3.923372 39.233716-58.850575 58.850575-129.471264 58.850575-204.015326 0-223.632184-176.551724-396.260536-392.337165-396.260536z" fill="#1296db" p-id="1256"></path><path d="M424.176835 219.708812c-19.616858 51.003831-35.310345 94.16092-54.927203 125.547893 11.770115 0 27.463602-3.923372 39.233716-7.846743l23.54023-54.927203 31.386973 11.770115c-31.386973 74.544061-58.850575 129.471264-78.467433 156.934865 19.616858-3.923372 39.233716-11.770115 58.850575-19.616858v35.310345c-35.310345 15.693487-70.62069 27.463602-102.007663 31.386973l-7.846743-39.233716c7.846743-3.923372 11.770115-7.846743 15.693486-11.770115 11.770115-15.693487 23.54023-39.233716 43.157088-78.467433l-54.927203 7.846743-7.846743-39.233716c7.846743-3.923372 11.770115-7.846743 15.693487-15.693487 19.616858-39.233716 35.310345-82.390805 47.080459-129.471264l31.386974 27.463601z m35.310344 341.333334c-39.233716 15.693487-78.467433 27.463602-121.624521 35.310344l-3.923371-43.157088c47.08046-7.846743 90.237548-19.616858 129.471264-35.310345v43.157089z m105.931035-349.180077c-3.923372 15.693487-7.846743 27.463602-11.770115 35.310345h105.931035v35.310345c-15.693487 35.310345-35.310345 66.697318-54.927204 90.237548 27.463602 19.616858 54.927203 35.310345 90.237548 51.003831l-19.616858 39.233716c-35.310345-15.693487-66.697318-39.233716-94.160919-62.773946-31.386973 31.386973-70.62069 51.003831-109.854407 66.697318l-19.616858-35.310345c39.233716-11.770115 70.62069-31.386973 98.084291-58.850574-15.693487-15.693487-27.463602-31.386973-39.233716-43.157089-7.846743 11.770115-19.616858 23.54023-27.463602 35.310345l-23.54023-35.310345c31.386973-35.310345 54.927203-74.544061 66.697318-121.624521l39.233717 3.923372z m-70.62069 298.176245c62.773946 19.616858 121.624521 39.233716 172.628353 66.697318l-19.616858 35.310345c-54.927203-27.463602-113.777778-51.003831-172.628353-66.697318l19.616858-35.310345z m47.08046-66.697318c39.233716 11.770115 74.544061 27.463602 109.854406 47.08046l-19.616858 31.386973c-35.310345-19.616858-70.62069-35.310345-109.854406-47.08046l19.616858-31.386973z m78.467433-156.934866h-82.390805c0 3.923372-3.923372 7.846743-7.846743 11.770115 11.770115 15.693487 27.463602 31.386973 43.157088 47.08046 19.616858-19.616858 35.310345-39.233716 47.08046-58.850575z" fill="#1296db" p-id="1257"></path></svg>