<?xml version="1.0" standalone="no"?><!DOCTYPE svg PUBLIC "-//W3C//DTD SVG 1.1//EN" "http://www.w3.org/Graphics/SVG/1.1/DTD/svg11.dtd"><svg t="1565414859417" class="icon" viewBox="0 0 1024 1024" version="1.1" xmlns="http://www.w3.org/2000/svg" p-id="2536" xmlns:xlink="http://www.w3.org/1999/xlink" width="200" height="200"><defs><style type="text/css"></style></defs><path d="M776.7 964.7h-529c-103.8 0-188.3-84.5-188.3-188.3v-529c0-103.8 84.5-188.3 188.3-188.3H513c18.2 0 33 14.8 33 33s-14.8 33-33 33H247.7c-67.4 0-122.3 54.9-122.3 122.3v529c0 67.4 54.9 122.3 122.3 122.3h529c67.4 0 122.3-54.9 122.3-122.3V511.2c0-18.2 14.8-33 33-33s33 14.8 33 33v265.2c0 103.8-84.5 188.3-188.3 188.3z" p-id="2537" fill="#8a8a8a"></path><path d="M416.5 640.5c-8.4 0-16.9-3.2-23.3-9.7-12.9-12.9-12.9-33.8 0-46.7L869 108.3c12.9-12.9 33.8-12.9 46.7 0 12.9 12.9 12.9 33.8 0 46.7L439.8 630.8c-6.4 6.5-14.8 9.7-23.3 9.7z" p-id="2538" fill="#8a8a8a"></path></svg>