<?xml version="1.0" standalone="no"?><!DOCTYPE svg PUBLIC "-//W3C//DTD SVG 1.1//EN" "http://www.w3.org/Graphics/SVG/1.1/DTD/svg11.dtd"><svg t="1573039158917" class="icon" viewBox="0 0 1024 1024" version="1.1" xmlns="http://www.w3.org/2000/svg" p-id="2035" xmlns:xlink="http://www.w3.org/1999/xlink" width="200" height="200"><defs><style type="text/css"></style></defs><path d="M916.9 131.7c0-0.3 0.1-0.7 0.1-1v-1-1.1c0-0.3 0-0.6-0.1-0.9 0-0.4-0.1-0.8-0.1-1.2 0-0.3-0.1-0.5-0.1-0.8-0.1-0.4-0.2-0.9-0.3-1.3-0.1-0.2-0.1-0.4-0.2-0.7-0.1-0.4-0.3-0.9-0.4-1.3-0.1-0.2-0.1-0.4-0.2-0.6-0.1-0.3-0.2-0.5-0.3-0.8l-0.3-0.6c-0.1-0.1-0.1-0.3-0.2-0.4-0.3-0.5-0.5-1-0.8-1.5 0-0.1-0.1-0.1-0.1-0.2-0.3-0.5-0.7-1-1-1.5 0 0 0-0.1-0.1-0.1-0.4-0.5-0.8-1-1.2-1.4l-0.1-0.1c-0.4-0.4-0.8-0.8-1.3-1.2-0.1-0.1-0.3-0.2-0.4-0.3-0.4-0.3-0.7-0.6-1.1-0.9-0.2-0.2-0.5-0.3-0.7-0.5l-0.9-0.6c-0.3-0.2-0.7-0.4-1-0.6-0.2-0.1-0.5-0.3-0.7-0.4-0.4-0.2-0.8-0.4-1.2-0.5-0.2-0.1-0.4-0.2-0.7-0.3-0.4-0.1-0.8-0.3-1.2-0.4-0.3-0.1-0.5-0.2-0.8-0.2-0.2 0-0.3-0.1-0.5-0.1-0.2-0.1-0.4-0.1-0.7-0.1-0.3-0.1-0.6-0.1-0.9-0.2-0.4-0.1-0.7-0.1-1.1-0.1-0.3 0-0.6-0.1-1-0.1h-2.1c-0.3 0-0.6 0-0.9 0.1-0.4 0-0.8 0.1-1.2 0.2-0.2 0-0.5 0.1-0.7 0.1-0.5 0.1-0.9 0.2-1.4 0.3-0.2 0-0.4 0.1-0.5 0.1-0.5 0.1-1 0.3-1.5 0.5-0.1 0-0.3 0.1-0.4 0.1l-0.9 0.3-767.6 344.5c-4.1 1.7-7.8 4.6-10.2 8.7-5.8 9.9-2.5 22.7 7.4 28.5L337.7 622c9.9 5.8 22.7 2.5 28.5-7.4s2.5-22.7-7.4-28.5L173.2 476.8 819 187.1 430.8 638.7c-0.4 0.5-0.8 0.9-1.1 1.4-0.1 0.1-0.2 0.3-0.3 0.4-0.2 0.2-0.3 0.5-0.4 0.7-1 1.6-1.8 3.2-2.3 4.9 0 0.1-0.1 0.3-0.1 0.4-0.1 0.5-0.3 1-0.4 1.5-0.1 0.4-0.1 0.8-0.2 1.2 0 0.2-0.1 0.5-0.1 0.7-0.1 0.6-0.1 1.2-0.1 1.8v242c0 11.7 9.6 21.3 21.3 21.3s21.3-9.6 21.3-21.3V659.1l388.8-452.3-136.6 589.5-159.3-93.8c-9.9-5.8-22.7-2.5-28.5 7.4-5.8 9.9-2.5 22.7 7.4 28.5l183 107.8c4.5 2.7 9.6 3.4 14.4 2.5 8.3-1.2 15.4-7.3 17.4-15.9l161.6-698.4c0-0.2 0.1-0.4 0.1-0.6 0.1-0.3 0.1-0.7 0.2-1-0.1-0.4-0.1-0.7 0-1.1z" p-id="2036" fill="#8a8a8a"></path></svg>