<?xml version="1.0" standalone="no"?><!DOCTYPE svg PUBLIC "-//W3C//DTD SVG 1.1//EN" "http://www.w3.org/Graphics/SVG/1.1/DTD/svg11.dtd"><svg t="1572775366026" class="icon" viewBox="0 0 1228 1024" version="1.1" xmlns="http://www.w3.org/2000/svg" p-id="2747" xmlns:xlink="http://www.w3.org/1999/xlink" width="153.5" height="128"><defs><style type="text/css"></style></defs><path d="M0 488.96h1228.8v76.8H0v-76.8z m902.4 487.68c-84.48 0-153.6-69.12-153.6-153.6s69.12-153.6 153.6-153.6 153.6 69.12 153.6 153.6-65.28 153.6-153.6 153.6z m0-230.4c-42.24 0-76.8 34.56-76.8 76.8s34.56 76.8 76.8 76.8 76.8-34.56 76.8-76.8-34.56-76.8-76.8-76.8zM268.8 972.8c-84.48 0-153.6-69.12-153.6-153.6s69.12-153.6 153.6-153.6 153.6 69.12 153.6 153.6-69.12 153.6-153.6 153.6z m0-230.4c-42.24 0-76.8 34.56-76.8 76.8s34.56 76.8 76.8 76.8 76.8-34.56 76.8-76.8-34.56-76.8-76.8-76.8z" fill="seagreen" p-id="2748"></path><path d="M1194.24 335.36l-184.32-184.32c-23.04-23.04-49.92-34.56-80.64-34.56H783.36v76.8h145.92a34.816 34.816 0 0 1 26.88 11.52l184.32 184.32c7.68 7.68 11.52 15.36 11.52 26.88V742.4c0 23.04-15.36 38.4-38.4 38.4h-119.04v76.8h119.04c65.28 0 115.2-49.92 115.2-115.2V416C1228.8 389.12 1217.28 358.4 1194.24 335.36z m-1013.76 449.28H76.8V488.96H0v372.48h180.48v-76.8z m172.8 0h464.64v76.8H353.28v-76.8z" fill="seagreen" p-id="2749"></path><path d="M733.44 12.8h-322.56c-23.04 0-38.4 15.36-38.4 38.4s15.36 38.4 38.4 38.4h322.56c23.04 0 38.4 15.36 38.4 38.4v360.96H76.8V128c0-23.04 15.36-38.4 38.4-38.4h61.44c23.04 0 38.4-15.36 38.4-38.4S199.68 12.8 176.64 12.8h-61.44C49.92 12.8 0 62.72 0 128v437.76h848.64V128c0-65.28-53.76-115.2-115.2-115.2z" fill="seagreen" p-id="2750"></path></svg>
