<?xml version="1.0" standalone="no"?><!DOCTYPE svg PUBLIC "-//W3C//DTD SVG 1.1//EN" "http://www.w3.org/Graphics/SVG/1.1/DTD/svg11.dtd"><svg t="1572089254356" class="icon" viewBox="0 0 1024 1024" version="1.1" xmlns="http://www.w3.org/2000/svg" p-id="2053" xmlns:xlink="http://www.w3.org/1999/xlink" width="128" height="128"><defs><style type="text/css"></style></defs><path d="M958.03593769 311.69950332L897.06447617 111.15797099c-8.0450455-26.48794131-33.75501416-46.4607-59.82294023-46.4607L186.6982045 64.69727099c-26.04274277 0-51.75271143 19.97275869-59.79775694 46.45260528L65.93708076 311.69140948c-3.68660039 12.12288047-3.91864307 36.32637041-3.91864307 36.56380956l0 547.85275576c0 34.1012795 27.74798701 61.84476914 61.84566827 61.84476914l776.23761094 0c34.09678213 0 61.82858057-27.74348965 61.82858057-61.84476914L961.93029747 348.25521904C961.93029747 348.01777989 961.70544951 323.80169873 958.03593769 311.69950332zM170.15751933 124.28816856c2.4211582-7.9712956 11.0247249-14.39024326 16.54068517-14.39024327L837.24153594 109.89792529c5.52495411 0 14.14560937 6.41894766 16.56496933 14.39833799l59.89039453 197.01772207L110.27611865 321.31398535 170.15751933 124.28816856zM916.7260458 896.1079748c0 9.17288086-7.46403926 16.63602099-16.6243289 16.636021L123.86320683 912.7439958c-9.17737734 0-16.64051748-7.46314013-16.64051748-16.63602099L107.22268935 366.51823701l809.50335645 0L916.7260458 896.1079748z" fill="#57c8ac" p-id="2054"></path><path d="M191.04136016 615.86607852l314.66785517 0c12.45565547 0 22.59807891-10.13792607 22.59807891-22.60257539 0-12.46285019-10.14242344-22.60257539-22.59807891-22.6025754L191.04136016 570.66092773c-12.46374932 0-22.60617276 10.13882607-22.60617276 22.60257539C168.43518652 605.72815244 178.57760996 615.86607852 191.04136016 615.86607852z" fill="#57c8ac" p-id="2055"></path><path d="M408.70998037 690.34638096L194.11187802 690.34638096c-12.46374932 0-22.60617276 10.14152432-22.60617274 22.60707276 0 12.45925283 10.14242344 22.59717891 22.60617274 22.5971789l214.59810235 0c12.46374932 0 22.60617276-10.13792607 22.60617275-22.5971789C431.31615401 700.48790527 421.17373057 690.34638096 408.70998037 690.34638096z" fill="#57c8ac" p-id="2056"></path><path d="M660.19207607 728.9365168c4.61027461 4.59948164 10.97435918 7.00804863 17.5569961 6.48550283 0.54053349 0.04137188 1.09006084 0.05756133 1.63778994 0.05756133 6.0412043 0 11.69836875-2.32582324 15.91740791-6.54845977l173.0210915-173.01209765c4.26850576-4.27390224 6.62310967-9.95175263 6.62310967-15.98845958 0.00899385-6.03940518-2.34561006-11.7136582-6.62310967-15.98306308-8.5361124-8.54510625-23.43810937-8.54510625-31.95803232 0L677.74907217 682.56215878l-69.53365635-69.53635458c-8.54600537-8.54420713-23.43810937-8.52711856-31.96792617 0-4.26760664 4.26760664-6.61411583 9.94365791-6.61411582 15.9785666 0 6.0412043 2.34561006 11.71905469 6.61411582 15.98396308L660.19207607 728.9365168z" fill="#57c8ac" p-id="2057"></path></svg>