<?xml version="1.0" standalone="no"?><!DOCTYPE svg PUBLIC "-//W3C//DTD SVG 1.1//EN" "http://www.w3.org/Graphics/SVG/1.1/DTD/svg11.dtd"><svg t="1567930903103" class="icon" viewBox="0 0 1024 1024" version="1.1" xmlns="http://www.w3.org/2000/svg" p-id="3114" xmlns:xlink="http://www.w3.org/1999/xlink" width="200" height="200"><defs><style type="text/css"></style></defs><path d="M527.08246403 941.85022484c-95.01952339 0-188.53080036-32.42729765-263.94312052-92.00303058-77.67468975-61.08397932-130.46331387-144.79165469-152.3328867-241.31942447-6.78710881-30.91905125-10.55772482-62.59222574-10.55772482-94.26540019 0-96.52776979 33.18142087-190.79316997 93.51127698-266.20549012 60.32985613-75.41232014 144.79165469-128.95506745 238.30293168-150.0705171 33.18142087-7.54123201 64.85459532-11.31184801 96.52776978-11.31184802 70.88758095 0 141.02103867 18.85308003 208.13800362 55.8051169 10.55772482 6.03298562 15.08246403 15.08246403 13.57421761 25.64018886-2.2623696 9.80360162-9.80360162 17.34483364-20.36132643 18.85308004h-3.0164928c-4.52473921 0-8.29535522-1.50824641-13.57421764-4.52473921-34.68966726-19.60720323-72.39582734-33.93554407-112.36435702-41.47677609-24.13194244-5.2788624-49.01800811-7.54123201-73.90407374-7.541232-72.39582734 0-144.0375315 21.11544964-205.875634 61.08397932-63.34634892 40.72265287-111.61023382 98.03601619-141.02103869 165.15298111-25.64018885 58.06748652-36.19791367 119.90558905-31.67317445 183.25193796 11.31184801 156.10350271 119.90558905 290.33743258 269.22198292 334.83070148 36.19791367 10.55772482 73.14995053 15.83658723 109.34786422 15.83658723 80.69118256 0 161.38236511-26.39431205 226.23696045-75.41232016 67.11696494-49.77213131 114.62672662-119.15146583 138.00454588-200.59677159 28.65668166-99.5442626 17.34483364-197.58027878-33.93554408-290.33743258-6.03298562-10.55772482-6.03298562-19.60720323 0-27.90255846 4.52473921-6.03298562 11.31184801-9.80360162 18.85308005-9.8036016 8.29535522 0 16.59071043 4.52473921 21.11544963 12.82009441 14.32834082 24.88606564 26.39431205 52.7886241 36.19791366 82.19942897 18.09895683 55.80511692 24.13194244 113.87260342 18.09895683 171.18596674-8.29535522 85.21592177-42.2308993 165.15298113-96.52776978 230.76169966-54.29687052 65.60871853-126.69269785 113.11848021-208.1380036 137.25042266-39.21440646 12.06597121-79.93705935 18.09895683-119.90558904 18.09895683z m162.13648831-376.30747753c-9.04947843 0-18.09895683-2.2623696-25.64018884-6.78710881-15.83658723-9.04947843-25.64018885-25.64018885-25.64018885-43.73914569s9.80360162-34.68966726 25.64018885-43.73914568c7.54123201-4.52473921 16.59071043-6.78710881 25.64018884-6.78710883s18.09895683 2.2623696 25.64018885 6.78710883c15.83658723 9.04947843 25.64018885 25.64018885 25.64018886 43.73914568s-9.80360162 34.68966726-25.64018886 43.73914569c-8.29535522 4.52473921-16.59071043 6.78710881-25.64018885 6.78710881z m-162.13648831 0c-27.90255844 0-50.5262545-22.62369604-50.5262545-51.28037771 0-18.09895683 9.80360162-34.68966726 25.64018885-43.73914569 7.54123201-4.52473921 16.59071043-6.78710881 25.64018885-6.78710881s18.09895683 2.2623696 25.64018886 6.78710881c15.83658723 9.04947843 25.64018885 25.64018885 25.64018885 43.73914569-1.50824641 28.65668166-24.13194244 51.2803777-52.03450091 51.28037771z m-162.89061152 0c-9.04947843 0-18.09895683-2.2623696-25.64018885-6.78710881-15.83658723-9.04947843-25.64018885-25.64018885-25.64018885-43.73914569s9.80360162-34.68966726 25.64018885-43.73914568c7.54123201-4.52473921 16.59071043-6.78710881 25.64018885-6.78710883s18.09895683 2.2623696 25.64018884 6.78710883c15.83658723 9.04947843 25.64018885 25.64018885 25.64018886 43.73914568s-9.80360162 34.68966726-25.64018886 43.73914569c-8.29535522 4.52473921-16.59071043 6.78710881-25.64018884 6.78710881z" p-id="3115" fill="#707070"></path></svg>