<?xml version="1.0" standalone="no"?><!DOCTYPE svg PUBLIC "-//W3C//DTD SVG 1.1//EN" "http://www.w3.org/Graphics/SVG/1.1/DTD/svg11.dtd"><svg t="1572090564955" class="icon" viewBox="0 0 1024 1024" version="1.1" xmlns="http://www.w3.org/2000/svg" p-id="3583" xmlns:xlink="http://www.w3.org/1999/xlink" width="128" height="128"><defs><style type="text/css"></style></defs><path d="M511.112282 958.364117c-41.442878 0-95.529727-23.514553-160.757311-69.885674-61.915142-44.017516-116.315122-95.743598-143.232169-122.660644-22.378683-22.375613-53.598732-82.887802-66.311265-348.878852-6.827499-142.842289-4.677533-278.530644-4.65502-279.884478l0.300852-18.11252 17.477047-4.767584c7.581676-2.068102 187.756221-50.649564 367.899044-50.649564 173.641759 0 340.823386 48.710398 347.854523 50.78464l17.152658 5.057179 0.152473 17.882276c0.011256 1.363044 1.082658 138.002051-6.29231 281.275151-13.737886 266.820951-43.572378 325.925071-64.819285 347.169931-20.920472 20.919449-76.640518 74.597999-142.058436 121.158431C607.151615 934.304142 552.40678 958.364117 511.112282 958.364117zM184.214047 156.281369c-0.325411 41.638329-0.476861 147.973146 4.816702 258.574127 3.949962 82.547041 10.106172 151.198607 18.297738 204.049303 13.056364 84.237543 28.072359 106.937544 33.921577 112.784716 43.983747 43.982724 93.944626 86.793762 137.070842 117.453039 70.868047 50.381457 111.327528 60.95835 132.792399 60.95835 63.274092 0 184.646394-92.546789 270.643-178.533163 8.53028-8.532327 37.409005-56.503898 50.745754-315.524187 5.729491-111.282502 6.310729-218.46871 6.28924-260.140809C791.987321 143.667074 657.044956 111.789039 521.833461 111.789039 379.915217 111.789039 233.726717 144.209426 184.214047 156.281369z" p-id="3584" fill="#57c8ac"></path><path d="M384.624473 252.595972l-1.031493 4.941546c-6.045693 28.927843-17.984606 62.893422-35.486212 100.957343-17.538445 38.080294-39.258119 72.650647-64.554248 102.747105l-2.182712 2.595105 2.712785 2.038426c9.335622 7.007601 17.050328 15.911388 22.930245 26.463722l2.348488 4.214998 2.979868-3.793396c11.812023-15.035438 25.260314-35.129078 40.050158-59.83783l0 162.242128c0 38.500872-0.615007 68.012-1.826602 87.706551l-0.208754 3.406586 3.412726 0 36.627199 0 3.405563 0-0.201591-3.399423C392.391367 662.429081 391.77636 632.30397 391.77636 593.3334L391.77636 357.652679c4.712325-12.941753 10.772344-27.464515 18.018376-43.173289 7.250124-15.692401 13.926174-27.840068 19.839861-36.102243l2.654456-3.710508-4.386914-1.246387c-16.598027-4.719488-29.7997-10.705829-39.240723-17.793248L384.624473 252.595972 384.624473 252.595972zM672.199097 276.960893l-3.432169 0L461.820646 276.960893l-3.483334 0 0.284479 3.473101c1.208525 14.728446 1.821485 37.437657 1.821485 67.4983 0 28.828582-0.615007 52.166103-1.823532 69.364811l-0.2415 3.436262 3.443425 0 81.033571 0 0 52.1835-64.552202 0c-23.14821 0-43.403532-0.613984-60.204174-1.823532l-3.440355-0.248663 0 3.449565 0 34.796504 0 3.442402 3.436262-0.2415c17.180288-1.208525 38.669718-1.822508 63.871703-1.822508l20.458961 0c-27.319206 54.104245-61.808718 92.723821-102.570073 114.838492l-5.89322 3.197832 6.186909 2.583848c14.007015 5.856381 24.615631 14.084787 31.531134 24.460088l1.987261 2.979868 2.745531-2.301416c42.23287-35.381835 77.997422-80.381725 106.442264-133.905756l0 98.480942c0 23.942295-0.615007 44.816718-1.823532 62.041008l-0.242524 3.434216 3.444449 0 38.458917 0 3.469008 0-0.26913-3.457752c-1.208525-15.60235-1.820462-37.70167-1.820462-65.679885L584.071967 531.815301c9.41851 19.955494 21.920242 40.018436 37.290301 59.823504 19.091824 24.666796 43.771923 45.290509 73.347518 61.289901l2.737344 1.482771 1.563612-2.691295c8.302083-14.261818 17.322527-25.697265 26.809599-33.992185l4.093225-3.579525-5.109368-1.855254c-26.347065-9.56996-49.377594-23.808242-68.453045-42.322921-17.938558-17.362436-32.383548-37.359886-42.990117-59.501162l26.102495 0c27.565822 0 52.148707 0.615007 73.070202 1.826602l3.39533 0.195451 0-3.400446L715.929064 474.29526l0-3.433192-3.427052 0.230244c-18.018376 1.211595-43.826158 1.825578-76.701916 1.825578l-51.730175 0 0-52.1835 84.697007 0 3.467985 0-0.268106-3.457752c-1.209548-15.58086-1.822508-37.679158-1.822508-65.681932 0-29.226648 0.615007-53.185316 1.824555-71.207785L672.199097 276.960893 672.199097 276.960893zM499.826238 312.683489l130.932028 0 0 72.329329-130.932028 0L499.826238 312.683489 499.826238 312.683489z" p-id="3585" fill="#57c8ac"></path></svg>