<?xml version="1.0" standalone="no"?><!DOCTYPE svg PUBLIC "-//W3C//DTD SVG 1.1//EN" "http://www.w3.org/Graphics/SVG/1.1/DTD/svg11.dtd"><svg t="1568021929616" class="icon" viewBox="0 0 1024 1024" version="1.1" xmlns="http://www.w3.org/2000/svg" p-id="14687" xmlns:xlink="http://www.w3.org/1999/xlink" width="200" height="200"><defs><style type="text/css"></style></defs><path d="M632.849805 598.211652c13.81433 0 25.070451-11.767763 25.070451-26.196063 0-14.530629-11.153792-26.196063-25.070451-26.196063h-102.226042l94.960728-99.463175c9.721195-10.232837 9.721195-26.810033 0-37.04287-9.823524-10.232837-25.684421-10.232837-35.405616 0l-82.374338 86.365144-82.578995-86.365144c-9.721195-10.232837-25.684421-10.232837-35.405616 0s-9.721195 26.810033 0 37.04287l94.960728 99.463175h-102.328371c-13.81433 0-25.070451 11.767763-25.07045 26.196063 0 14.530629 11.256121 26.196063 25.07045 26.196063h100.077146v26.196063h-100.077146c-13.81433 0-25.070451 11.767763-25.07045 26.196062 0 14.530629 11.256121 26.196063 25.07045 26.196063h100.077146v75.518337c0 11.051464 11.153792 20.056361 25.070451 20.056361 13.81433 0 24.968122-9.004897 24.968122-20.056361v-75.518337h100.077146c13.81433 0 25.070451-11.767763 25.070451-26.196063 0-14.530629-11.153792-26.196063-25.070451-26.196062h-100.077146v-26.196063h100.281803z" fill="#707070" p-id="14688"></path><path d="M842.725292 356.205056c-24.968122-27.01469-51.675827-51.061857-78.48586-72.039172-3.990806-3.172179-7.060658-5.321075-10.64215-7.981613 49.62926-17.498151 84.420905-59.350455 84.420905-108.877386 0-66.718097-61.806336-117.677626-135.175777-117.677625-16.884181 0-32.438093 3.274508-46.354751 8.697911-6.446687 2.558209-11.358449 5.116419-15.349256 7.469971-2.558209 1.125612-8.083941-0.102328-9.516538-2.046567l-0.102329 0.102328c-5.62806-8.595583-14.018987-19.237734-26.298391-30.186869C581.890277 12.791046 554.261617 0 522.64215 0c-31.517138 0-59.145798 12.791046-82.578994 33.563705-11.972419 10.64215-20.261017 20.977316-25.786749 29.470571-2.148896 2.558209-7.674628 3.888478-9.516539 2.967523-4.093135-2.455881-9.107225-5.116419-15.860897-7.776956-13.916658-5.423404-29.470571-8.697911-46.354752-8.697912-73.369441 0-135.175777 51.061857-135.175777 117.677626 0 42.363945 25.479764 78.997502 63.852903 99.770161-3.78615 2.762866-7.879285 5.832717-12.279404 9.107225-26.707705 20.363346-53.415409 44.205856-78.383532 71.220545-72.550814 78.792845-116.552014 168.637154-116.552013 268.407315 0 276.695913 201.279904 408.290197 443.695812 408.290197 101.612072 0 200.870591-20.772659 281.30069-69.787948 109.082043-66.513441 171.093035-178.358349 171.093035-338.502249-0.102328-93.732787-44.410513-180.916558-117.370641-259.504747zM507.702208 962.193664c-213.354652 0-383.62906-111.333267-383.629059-346.483861 0-81.658039 37.247527-157.58569 100.077146-225.736384 22.409913-24.354152 46.559408-45.84311 70.606575-64.262217 8.390926-6.446687 16.167882-11.972419 23.023883-16.577196 3.990806-2.762866 6.753672-4.502448 8.083942-5.218747 33.870691-22.921555 30.698511-63.341261-2.455881-80.532427 0.102328-0.306985 0.102328-0.409313 0.102328-0.409313-0.102328-0.102328-0.102328-0.102328-0.204657-0.102329l-0.409313-0.204657c-0.511642-0.204657-0.511642-0.204657-1.125612-0.511641-1.22794-0.61397-1.22794-0.61397-1.637254-0.716299-0.306985-0.204657-0.409313-0.204657-0.818627-0.409313l-0.61397-0.204657c-0.102328 0-0.102328 0-0.102329-0.102329l-3.479164-1.330268c-29.265914-8.80024-47.68502-30.084541-47.685021-51.982812 0-29.163585 32.335765-55.87129 75.109024-55.871291 9.209553 0 17.60048 1.739582 25.070451 4.707105 4.093135 1.637254 6.651344 2.967523 7.265314 3.376837l3.683821 2.148895c27.219346 13.609673 62.113321 5.01409 81.65804-18.623763l2.558209-3.581493c2.558209-4.093135 8.390926-11.563106 16.781853-19.135405 13.302688-11.870091 27.833317-18.521435 43.2849-18.521435 15.451584 0 29.982212 6.753672 43.284901 18.521435 8.390926 7.469971 14.223643 15.04227 16.781853 19.135405l2.046567 2.967523c18.930748 24.251824 54.234036 32.335765 81.555711 19.544719l4.297791-2.455881c0.61397-0.409313 3.172179-1.841911 7.265315-3.479165 7.469971-2.865194 15.860897-4.707105 25.07045-4.707105 42.773259 0 75.109024 26.707705 75.109024 55.87129 0 21.898271-18.316778 43.182572-47.582692 51.982812l-4.297792 1.637254c-8.390926 3.990806-14.018987 5.935045-16.065554 6.446687-42.159288 13.302688-49.219946 57.406216-15.144598 81.965025 2.762866 1.841911 5.62806 3.683821 9.721195 6.549016 6.958329 4.911762 14.837614 10.744479 23.330868 17.395823 24.354152 19.033077 48.708304 41.033676 71.322874 65.490156 63.238933 68.253023 100.691116 141.724793 100.691116 216.936145-0.306985 247.327671-162.804437 346.483861-392.531628 346.483861z" fill="#707070" p-id="14689"></path></svg>